<svg width="242" height="55" xmlns="http://www.w3.org/2000/svg" xmlns:xlink="http://www.w3.org/1999/xlink" xmlns:svgjs="http://svgjs.com/svgjs" viewBox="0 0.397 242 54.207"><svg xmlns="http://www.w3.org/2000/svg" width="242" height="55" viewBox="2 1.006 241 53.983" fill="#fff"><path fill="#FFF" paint-order="stroke fill markers" fill-rule="evenodd" d="M24.92 49.4l28.618-.252-20.555-35.19-16.792 29.93-4.52.04L30.976 10.36l-3.229-5.526L2 49.602l17.44-.153 13.64-24.313 10.81 18.508-16.65.147-2.32 5.61zm44.756 5.589L38.366 1.225l.371-.219 31.31 53.763-.37.22zm2.808-33.178v-.052c0-5.224 4.094-9.459 9.553-9.459 5.459 0 9.502 4.183 9.502 9.407v.052c0 5.223-4.095 9.46-9.553 9.46-5.459 0-9.502-4.185-9.502-9.408zm14.051 0v-.052c0-2.625-1.845-4.912-4.55-4.912-2.678 0-4.472 2.235-4.472 4.86v.052c0 2.625 1.845 4.912 4.524 4.912 2.704 0 4.498-2.235 4.498-4.86zm10.089-9.147h4.574l7.278 9.615v-9.615h4.852v18.19h-4.296l-7.556-9.979v9.98h-4.852V12.663zm26.691 4.417h-5.307v-4.417h15.517v4.417h-5.307v13.773h-4.903V17.081zm14.99-4.417h4.929v18.19h-4.929v-18.19zm10.086 9.147v-.052c0-5.301 3.968-9.459 9.325-9.459 3.614 0 5.939 1.559 7.506 3.794l-3.69 2.936c-1.01-1.299-2.173-2.13-3.866-2.13-2.476 0-4.22 2.156-4.22 4.807v.052c0 2.729 1.744 4.86 4.22 4.86 1.845 0 2.931-.884 3.993-2.21l3.69 2.703c-1.668 2.365-3.918 4.106-7.835 4.106-5.054 0-9.123-3.976-9.123-9.407zm21.586-9.147h14.229v4.287h-9.376v2.755h8.49v3.976h-8.49v2.884h9.502v4.288h-14.355v-18.19zm19.388 0h4.903v13.773h8.567v4.417h-13.47v-18.19zm18.099 0h4.902v13.773h8.568v4.417h-13.47v-18.19zm16.48 9.147v-.052c0-5.224 4.095-9.459 9.554-9.459 5.459 0 9.502 4.183 9.502 9.407v.052c0 5.223-4.095 9.46-9.553 9.46-5.459 0-9.502-4.185-9.502-9.408zm14.052 0v-.052c0-2.625-1.845-4.912-4.55-4.912-2.678 0-4.472 2.235-4.472 4.86v.052c0 2.625 1.844 4.912 4.524 4.912 2.704 0 4.498-2.235 4.498-4.86zM53.424 26.482V20.46l4.498 7.07h.101l4.524-7.122v10.447h4.877v-18.19h-5.18l-4.221 7.042-4.22-7.042h-5.18v5.574l4.8 8.244zm20.07 14.225h.678v6.06h-.678v-6.06zm5.875 0h.636l3.786 4.857v-4.857h.661v6.06h-.541l-3.88-4.97v4.97h-.662v-6.06zm11.811.631h-2.018v-.63h4.722v.63h-2.018v5.43h-.686v-5.43zm7.414-.63h4.345v.622h-3.666v2.07h3.279v.622h-3.28v2.121h3.71v.625h-4.388v-6.06zm9.19 0h2.586c.738 0 1.33.224 1.708.605.291.294.463.719.463 1.194v.017c0 1.005-.687 1.594-1.63 1.767l1.845 2.477h-.833l-1.742-2.356h-1.717v2.356h-.68v-6.06zm2.525 3.09c.902 0 1.545-.468 1.545-1.247v-.018c0-.745-.566-1.195-1.536-1.195h-1.854v2.46h1.845zm7.123-3.09h.636l3.786 4.856v-4.857h.66v6.06h-.54l-3.88-4.97v4.97h-.662v-6.06zm12.446-.045h.635l2.739 6.105h-.73l-.704-1.603h-3.27l-.714 1.603h-.695l2.739-6.105zm1.674 3.888l-1.365-3.091-1.374 3.091h2.74zm7.14-3.213h-2.018v-.63h4.722v.63h-2.018v5.43h-.686v-5.43zm7.475-.63h.677v6.06h-.677v-6.06zm5.61 3.046v-.017c0-1.671 1.244-3.135 3.073-3.135s3.056 1.447 3.056 3.118v.017c0 1.67-1.245 3.134-3.074 3.134-1.829 0-3.056-1.446-3.056-3.117zm5.425 0v-.017c0-1.377-.996-2.502-2.37-2.502-1.373 0-2.352 1.108-2.352 2.485v.017c0 1.376.996 2.502 2.37 2.502 1.373 0 2.352-1.108 2.352-2.485zm5.577-3.047h.636l3.786 4.857v-4.857h.66v6.06h-.54l-3.881-4.97v4.97h-.661v-6.06zm12.446-.044h.636l2.738 6.105h-.73l-.703-1.603h-3.27l-.714 1.603h-.695l2.738-6.105zm1.675 3.888l-1.366-3.091-1.373 3.091h2.739zm6.324-3.844h.679v5.428h3.382v.633h-4.06v-6.06zm14.5 3.047v-.017c0-1.663 1.211-3.135 3.014-3.135 1.013 0 1.64.294 2.24.806l-.437.519c-.464-.406-.979-.692-1.828-.692-1.332 0-2.285 1.134-2.285 2.485v.017c0 1.445.919 2.52 2.379 2.52.687 0 1.322-.27 1.734-.606v-1.508h-1.828v-.614h2.48v2.416c-.558.502-1.4.926-2.413.926-1.888 0-3.055-1.385-3.055-3.117zm10.437-3.047h2.585c.738 0 1.33.225 1.708.606.292.294.464.719.464 1.194v.017c0 1.005-.687 1.594-1.631 1.767l1.845 2.477h-.833l-1.742-2.356h-1.717v2.356h-.679v-6.06zm2.524 3.09c.902 0 1.546-.467 1.546-1.246v-.018c0-.745-.567-1.195-1.537-1.195h-1.854v2.46h1.845zm6.857-.043v-.017c0-1.671 1.244-3.135 3.073-3.135s3.056 1.447 3.056 3.118v.017c0 1.67-1.245 3.134-3.073 3.134-1.83 0-3.056-1.446-3.056-3.117zm5.425 0v-.017c0-1.377-.995-2.502-2.37-2.502-1.373 0-2.352 1.108-2.352 2.485v.017c0 1.376.996 2.502 2.37 2.502 1.373 0 2.352-1.108 2.352-2.485zm5.484.476v-3.523h.678v3.48c0 1.307.687 2.043 1.837 2.043 1.108 0 1.812-.676 1.812-2v-3.523h.678v3.472c0 1.766-1.004 2.683-2.507 2.683-1.485 0-2.498-.917-2.498-2.632zm10.05-3.523h2.25c1.356 0 2.249.727 2.249 1.922v.017c0 1.308-1.082 1.983-2.36 1.983h-1.46v2.139h-.679v-6.06zm2.164 3.298c.995 0 1.648-.537 1.648-1.334v-.016c0-.867-.644-1.317-1.614-1.317h-1.52v2.667h1.486z"/></svg></svg>